<svg id="columnbarChart" width="512.62" height="400" version="1.1" xmlns="http://www.w3.org/2000/svg"><g transform="translate(40,20)"><g class="layer" id="0" style="fill: rgb(143, 187, 217);"><rect x="7" y="193.8" width="23" height="146.2"></rect><rect x="58" y="170" width="23" height="170"></rect><rect x="109" y="149.6" width="23" height="190.4"></rect><rect x="160" y="197.20000000000002" width="23" height="142.79999999999998"></rect><rect x="211" y="132.6" width="23" height="207.4"></rect><rect x="262" y="278.8" width="23" height="61.19999999999999"></rect><rect x="313" y="214.2" width="23" height="125.80000000000001"></rect><rect x="364" y="210.8" width="23" height="129.2"></rect></g><g class="x axis" transform="translate(0,340)"><g class="tick" transform="translate(30,0)" style="opacity: 1;"><line y2="6" x2="0"></line><text y="9" x="0" dy=".70em" dx="-.2em" style="text-anchor: end;">E2 </text></g><g class="tick" transform="translate(81,0)" style="opacity: 1;"><line y2="6" x2="0"></line><text y="9" x="0" dy=".70em" dx="-.2em" style="text-anchor: end;">E3 </text></g><g class="tick" transform="translate(132,0)" style="opacity: 1;"><line y2="6" x2="0"></line><text y="9" x="0" dy=".70em" dx="-.2em" style="text-anchor: end;">E4 </text></g><g class="tick" transform="translate(183,0)" style="opacity: 1;"><line y2="6" x2="0"></line><text y="9" x="0" dy=".70em" dx="-.2em" style="text-anchor: end;">E5 </text></g><g class="tick" transform="translate(234,0)" style="opacity: 1;"><line y2="6" x2="0"></line><text y="9" x="0" dy=".70em" dx="-.2em" style="text-anchor: end;">E6 </text></g><g class="tick" transform="translate(285,0)" style="opacity: 1;"><line y2="6" x2="0"></line><text y="9" x="0" dy=".70em" dx="-.2em" style="text-anchor: end;">E7 </text></g><g class="tick" transform="translate(336,0)" style="opacity: 1;"><line y2="6" x2="0"></line><text y="9" x="0" dy=".70em" dx="-.2em" style="text-anchor: end;">E8 </text></g><g class="tick" transform="translate(387,0)" style="opacity: 1;"><line y2="6" x2="0"></line><text y="9" x="0" dy=".70em" dx="-.2em" style="text-anchor: end;">E9 </text></g><path class="domain" d="M0,6V0H417.62V6"></path></g><g class="x axis" transform="translate(0,340)" x="208.81" y="40" dx="1em" style="text-anchor: middle;">Time Period</g><g class="y axis"><g class="tick" transform="translate(0,340)" style="opacity: 1;"><line x2="-6" y2="0"></line><text x="-9" y="0" dy=".32em" style="text-anchor: end;">0</text></g><g class="tick" transform="translate(0,306)" style="opacity: 1;"><line x2="-6" y2="0"></line><text x="-9" y="0" dy=".32em" style="text-anchor: end;">10</text></g><g class="tick" transform="translate(0,272)" style="opacity: 1;"><line x2="-6" y2="0"></line><text x="-9" y="0" dy=".32em" style="text-anchor: end;">20</text></g><g class="tick" transform="translate(0,238)" style="opacity: 1;"><line x2="-6" y2="0"></line><text x="-9" y="0" dy=".32em" style="text-anchor: end;">30</text></g><g class="tick" transform="translate(0,204)" style="opacity: 1;"><line x2="-6" y2="0"></line><text x="-9" y="0" dy=".32em" style="text-anchor: end;">40</text></g><g class="tick" transform="translate(0,170)" style="opacity: 1;"><line x2="-6" y2="0"></line><text x="-9" y="0" dy=".32em" style="text-anchor: end;">50</text></g><g class="tick" transform="translate(0,136)" style="opacity: 1;"><line x2="-6" y2="0"></line><text x="-9" y="0" dy=".32em" style="text-anchor: end;">60</text></g><g class="tick" transform="translate(0,101.99999999999997)" style="opacity: 1;"><line x2="-6" y2="0"></line><text x="-9" y="0" dy=".32em" style="text-anchor: end;">70</text></g><g class="tick" transform="translate(0,68)" style="opacity: 1;"><line x2="-6" y2="0"></line><text x="-9" y="0" dy=".32em" style="text-anchor: end;">80</text></g><g class="tick" transform="translate(0,34)" style="opacity: 1;"><line x2="-6" y2="0"></line><text x="-9" y="0" dy=".32em" style="text-anchor: end;">90</text></g><g class="tick" transform="translate(0,0)" style="opacity: 1;"><line x2="-6" y2="0"></line><text x="-9" y="0" dy=".32em" style="text-anchor: end;">100</text></g><path class="domain" d="M-6,0H0V340H-6"></path><text transform="rotate(-90)" y="-40" x="-170" dy="1em" style="text-anchor: end;">Score</text></g><g class="y axis"><g class="tick" transform="translate(0,340)" style="opacity: 1;"><line x2="-6" y2="0"></line><text x="-9" y="0" dy=".32em" style="text-anchor: end;">0</text></g><g class="tick" transform="translate(0,306)" style="opacity: 1;"><line x2="-6" y2="0"></line><text x="-9" y="0" dy=".32em" style="text-anchor: end;">10</text></g><g class="tick" transform="translate(0,272)" style="opacity: 1;"><line x2="-6" y2="0"></line><text x="-9" y="0" dy=".32em" style="text-anchor: end;">20</text></g><g class="tick" transform="translate(0,238)" style="opacity: 1;"><line x2="-6" y2="0"></line><text x="-9" y="0" dy=".32em" style="text-anchor: end;">30</text></g><g class="tick" transform="translate(0,204)" style="opacity: 1;"><line x2="-6" y2="0"></line><text x="-9" y="0" dy=".32em" style="text-anchor: end;">40</text></g><g class="tick" transform="translate(0,170)" style="opacity: 1;"><line x2="-6" y2="0"></line><text x="-9" y="0" dy=".32em" style="text-anchor: end;">50</text></g><g class="tick" transform="translate(0,136)" style="opacity: 1;"><line x2="-6" y2="0"></line><text x="-9" y="0" dy=".32em" style="text-anchor: end;">60</text></g><g class="tick" transform="translate(0,101.99999999999997)" style="opacity: 1;"><line x2="-6" y2="0"></line><text x="-9" y="0" dy=".32em" style="text-anchor: end;">70</text></g><g class="tick" transform="translate(0,68)" style="opacity: 1;"><line x2="-6" y2="0"></line><text x="-9" y="0" dy=".32em" style="text-anchor: end;">80</text></g><g class="tick" transform="translate(0,34)" style="opacity: 1;"><line x2="-6" y2="0"></line><text x="-9" y="0" dy=".32em" style="text-anchor: end;">90</text></g><g class="tick" transform="translate(0,0)" style="opacity: 1;"><line x2="-6" y2="0"></line><text x="-9" y="0" dy=".32em" style="text-anchor: end;">100</text></g><path class="domain" d="M-6,0H0V340H-6"></path><path d="M0,70L417.62,70" stroke="#1F77B4" stroke-dasharray="5,5" stroke-width="2" fill="none"></path></g></g></svg> 